<svg width="78" height="21" viewBox="0 0 78 21" fill="none" xmlns="http://www.w3.org/2000/svg">
<path d="M20.3467 5.11707H23.4701L23.6695 8.24049H24.0018C24.5112 7.2215 25.209 6.42403 26.0951 5.84808C27.0033 5.24998 27.9559 4.95093 28.9527 4.95093C29.1299 4.95093 29.3515 5.03954 29.6173 5.21675C29.8831 5.39397 30.0825 5.57118 30.2154 5.7484L29.8499 8.77214H28.3546C27.3356 8.77214 26.4274 8.97151 25.6299 9.37024C24.8546 9.74683 24.2787 10.3449 23.9021 11.1646V20.7342H20.3467V5.11707Z" fill="#694498"/>
<path d="M39.9622 20.9999C37.5255 20.9999 35.7644 20.3243 34.6789 18.973C33.6156 17.5996 33.084 15.6502 33.084 13.1249C33.084 10.5331 33.7264 8.49515 35.0112 7.01097C36.3182 5.50463 38.2565 4.75146 40.8261 4.75146C45.4116 4.75146 47.7043 7.46508 47.7043 12.8923C47.7043 18.2974 45.1236 20.9999 39.9622 20.9999ZM40.66 17.9762C41.7676 17.9762 42.7201 17.8211 43.5176 17.511C43.9606 16.5142 44.1821 15.1186 44.1821 13.3243C44.1821 11.973 44.0714 10.9097 43.8498 10.1344C43.6505 9.35907 43.2517 8.7942 42.6536 8.43977C42.0777 8.06318 41.2359 7.87489 40.1283 7.87489C39.0207 7.87489 38.0682 8.02996 37.2707 8.34008C36.8277 9.35907 36.6061 10.8322 36.6061 12.7594C36.6061 14.0885 36.7169 15.1186 36.9384 15.8496C37.1599 16.5806 37.5587 17.1233 38.1346 17.4778C38.7106 17.81 39.5524 17.9762 40.66 17.9762Z" fill="#F58540"/>
<path d="M14.5871 20.9668C13.8339 20.9668 13.2247 20.8339 12.7595 20.5681C12.2943 20.2801 11.9178 19.8371 11.6298 19.239L9.33705 14.1219C8.98262 13.3023 8.56174 12.7263 8.07439 12.394C7.6092 12.0396 6.88926 11.8624 5.91458 11.8624H3.65507V20.7342H0V0.199367H3.65507V8.53958H5.71521C6.7342 8.53958 7.49844 8.36237 8.00794 8.00793C8.53958 7.6535 8.96047 7.12186 9.2706 6.41299L11.9621 0L15.4842 1.22943L12.9257 7.0111C12.5269 7.87502 12.1061 8.52851 11.663 8.97155C11.22 9.41458 10.5554 9.78009 9.66933 10.0681V10.2674C10.4668 10.5111 11.0538 10.8212 11.4304 11.1978C11.807 11.5522 12.2057 12.1171 12.6266 12.8924L15.451 18.3086L17.0459 18.6076V20.6678C16.2928 20.8671 15.4731 20.9668 14.5871 20.9668Z" fill="#30B351"/>
<path d="M56.0666 20.9999C53.7849 20.9999 51.8467 20.5679 50.2517 19.704L51.2818 16.9129C52.0128 17.2673 52.7992 17.5442 53.641 17.7436C54.4827 17.9429 55.3134 18.0426 56.1331 18.0426C57.1742 18.0426 58.0381 17.9762 58.7248 17.8432C58.9021 17.4888 58.9907 17.0458 58.9907 16.5141C58.9907 16.0932 58.9131 15.772 58.7581 15.5505C58.6252 15.3068 58.3593 15.1075 57.9606 14.9524C57.5619 14.7752 56.9416 14.598 56.0998 14.4208C54.7929 14.1328 53.7296 13.8116 52.9099 13.4572C52.1125 13.1027 51.4811 12.6154 51.016 11.9951C50.5729 11.3749 50.3514 10.5553 50.3514 9.53626C50.3514 8.16284 50.872 7.03309 51.9131 6.14701C52.9542 5.23878 54.516 4.78467 56.5982 4.78467C58.6141 4.78467 60.3309 5.15018 61.7486 5.88119V6.94448C61.7486 7.34322 61.7043 7.81949 61.6157 8.37329C61.5492 8.90493 61.4495 9.32582 61.3166 9.63595H58.5919L58.3261 7.70873C57.6172 7.62012 56.9748 7.57581 56.3989 7.57581C55.4685 7.57581 54.8039 7.70873 54.4052 7.97455C54.0286 8.24037 53.8403 8.68341 53.8403 9.30367C53.8403 9.90177 54.0729 10.367 54.5381 10.6992C55.0255 11.0315 55.8894 11.3195 57.1299 11.5632C58.4147 11.829 59.4226 12.128 60.1536 12.4603C60.8847 12.7704 61.4495 13.2356 61.8483 13.8559C62.247 14.454 62.4464 15.2625 62.4464 16.2815C62.4464 17.6993 61.9258 18.8401 60.8847 19.704C59.8435 20.5679 58.2375 20.9999 56.0666 20.9999Z" fill="#ED3692"/>
<path d="M71.0192 20.9999C68.7376 20.9999 66.7993 20.5679 65.2043 19.704L66.2344 16.9129C66.9654 17.2673 67.7518 17.5442 68.5936 17.7436C69.4354 17.9429 70.2661 18.0426 71.0857 18.0426C72.1268 18.0426 72.9908 17.9762 73.6775 17.8432C73.8547 17.4888 73.9433 17.0458 73.9433 16.5141C73.9433 16.0932 73.8658 15.772 73.7107 15.5505C73.5778 15.3068 73.312 15.1075 72.9132 14.9524C72.5145 14.7752 71.8942 14.598 71.0525 14.4208C69.7455 14.1328 68.6822 13.8116 67.8626 13.4572C67.0651 13.1027 66.4338 12.6154 65.9686 11.9951C65.5255 11.3749 65.304 10.5553 65.304 9.53626C65.304 8.16284 65.8246 7.03309 66.8657 6.14701C67.9069 5.23878 69.4686 4.78467 71.5509 4.78467C73.5667 4.78467 75.2835 5.15018 76.7012 5.88119V6.94448C76.7012 7.34322 76.6569 7.81949 76.5683 8.37329C76.5019 8.90493 76.4022 9.32582 76.2693 9.63595H73.5446L73.2787 7.70873C72.5699 7.62012 71.9275 7.57581 71.3515 7.57581C70.4211 7.57581 69.7566 7.70873 69.3578 7.97455C68.9813 8.24037 68.793 8.68341 68.793 9.30367C68.793 9.90177 69.0256 10.367 69.4908 10.6992C69.9781 11.0315 70.842 11.3195 72.0825 11.5632C73.3673 11.829 74.3753 12.128 75.1063 12.4603C75.8373 12.7704 76.4022 13.2356 76.8009 13.8559C77.1996 14.454 77.399 15.2625 77.399 16.2815C77.399 17.6993 76.8784 18.8401 75.8373 19.704C74.7962 20.5679 73.1901 20.9999 71.0192 20.9999Z" fill="#E82F29"/>
</svg>
